<?xml version="1.0" encoding="UTF-8"?>
<svg version="1.1" xmlns="http://www.w3.org/2000/svg" width="85" height="85">
<path d="M0 0 C6.60672803 6.03595239 10.03320989 13.15804529 10.93359375 22.02734375 C11.30508423 31.92988679 9.35226471 38.75868958 2.99609375 46.46484375 C-3.57663481 53.47213287 -10.99405988 57.05037159 -20.62890625 57.71484375 C-31.02386969 57.52198729 -39.43908152 52.82678738 -46.81640625 45.77734375 C-52.40057218 37.32132106 -54.38326607 28.5281732 -53.00390625 18.46484375 C-50.36426226 9.13061331 -46.10549913 1.73975773 -37.75390625 -3.34765625 C-25.02034782 -9.79960977 -11.34506515 -8.69124874 0 0 Z " fill="#DEA938" transform="translate(74.00390625,7.53515625)"/>
<path d="M0 0 C-1.27807467 3.49938071 -2.76353908 6.32256131 -4.96875 9.3203125 C-5.53980469 10.10277344 -6.11085938 10.88523437 -6.69921875 11.69140625 C-7.29347656 12.49449219 -7.88773438 13.29757813 -8.5 14.125 C-9.67743081 15.73151622 -10.8545281 17.33827695 -12.03125 18.9453125 C-12.55267578 19.65187988 -13.07410156 20.35844727 -13.61132812 21.08642578 C-14.77988825 22.69668849 -15.89637259 24.34455889 -17 26 C-19.95064148 26.2208564 -22.68368231 26.28060989 -25.625 26.1875 C-26.42679688 26.17396484 -27.22859375 26.16042969 -28.0546875 26.14648438 C-30.03674378 26.11109051 -32.01845551 26.05728234 -34 26 C-34.33481791 18.79095192 -31.94244797 13.37102191 -27.203125 7.94140625 C-19.53814093 0.81297106 -10.37604945 -3.45868315 0 0 Z " fill="#FBFAF8" transform="translate(59,5)"/>
<path d="M0 0 C1.87945312 0.10441406 1.87945312 0.10441406 3.796875 0.2109375 C5.06015625 0.26507813 6.3234375 0.31921875 7.625 0.375 C8.58921875 0.44460937 9.5534375 0.51421875 10.546875 0.5859375 C9.54417543 8.86685294 7.0578567 15.34962916 0.87890625 21.15234375 C-6.40573404 26.73667899 -13.41187518 28.08617058 -22.453125 27.5859375 C-20.8839668 22.3588066 -17.52918585 18.74182135 -14.078125 14.6484375 C-12.921944 13.2664399 -11.76824779 11.88235928 -10.6171875 10.49609375 C-9.78767578 9.50754395 -9.78767578 9.50754395 -8.94140625 8.49902344 C-7.24259525 6.41237412 -7.24259525 6.41237412 -5.4921875 3.10546875 C-3.453125 0.5859375 -3.453125 0.5859375 0 0 Z " fill="#FEFCF8" transform="translate(70.453125,33.4140625)"/>
<path d="M0 0 C10.89 0 21.78 0 33 0 C29.17528306 5.73707541 25.41204095 11.2095236 21.125 16.5625 C20.37863281 17.50319336 20.37863281 17.50319336 19.6171875 18.46289062 C18.41456522 19.97773215 17.2077473 21.48924136 16 23 C11.72998245 22.10926516 8.88395389 20.24629682 6 17 C2.36070392 11.24913374 0.97985326 6.8589728 0 0 Z " fill="#FEFDFC" transform="translate(25,34)"/>
<path d="M0 0 C6.89173773 3.36573238 11.33334119 7.7035676 14 15 C14 17.31 14 19.62 14 22 C4.76 22 -4.48 22 -14 22 C-12.50731561 18.26828902 -11.42735311 15.9253538 -9.1796875 12.79296875 C-8.64472656 12.04208984 -8.10976563 11.29121094 -7.55859375 10.51757812 C-7.00300781 9.74865234 -6.44742188 8.97972656 -5.875 8.1875 C-5.31167969 7.39923828 -4.74835937 6.61097656 -4.16796875 5.79882812 C-2.78322342 3.86253169 -1.39381373 1.92977359 0 0 Z " fill="#FEFDFB" transform="translate(66,8)"/>
<path d="M0 0 C0.66 0.66 1.32 1.32 2 2 C1.5153125 2.65484375 1.030625 3.3096875 0.53125 3.984375 C-0.47421875 5.35335938 -0.47421875 5.35335938 -1.5 6.75 C-2.1496875 7.63171875 -2.799375 8.5134375 -3.46875 9.421875 C-7.08863545 14.53887357 -10.52316479 19.78474718 -14 25 C-2.45 25.33 9.1 25.66 21 26 C21 26.99 21 27.98 21 29 C19.71867187 28.86335938 18.43734375 28.72671875 17.1171875 28.5859375 C7.39641428 27.93583722 7.39641428 27.93583722 -1.25683594 31.71728516 C-5.92556919 36.60977029 -9.49348047 42.2461438 -13 48 C-13.78494369 49.19844082 -14.57565602 50.39314682 -15.375 51.58203125 C-15.91125 52.37996094 -16.4475 53.17789063 -17 54 C-18.32 53.34 -19.64 52.68 -21 52 C-20.31550781 51.35675781 -19.63101563 50.71351562 -18.92578125 50.05078125 C-15.2853533 46.4103533 -12.27593893 42.29454609 -9.1875 38.1875 C-6.1246875 34.1346875 -6.1246875 34.1346875 -3 30 C-13.56 29.67 -24.12 29.34 -35 29 C-35 28.01 -35 27.02 -35 26 C-33.90042969 26.1134375 -32.80085938 26.226875 -31.66796875 26.34375 C-23.44115415 26.87800903 -23.44115415 26.87800903 -16.22802734 23.52734375 C-12.97909694 19.69574132 -10.55070941 15.36974513 -8.13720703 10.98046875 C-6.59384703 8.29267649 -4.75515091 5.90996853 -2.8125 3.5 C-2.26207031 2.8090625 -1.71164063 2.118125 -1.14453125 1.40625 C-0.76683594 0.9421875 -0.38914063 0.478125 0 0 Z " fill="#88877B" transform="translate(60,5)"/>
<path d="M0 0 C0.99 0 1.98 0 3 0 C3.33 0.99 3.66 1.98 4 3 C2.82836914 5.26831055 2.82836914 5.26831055 1.03515625 7.88671875 C0.46418213 8.73194092 -0.10679199 9.57716309 -0.69506836 10.44799805 C-1.80507202 12.05155151 -1.80507202 12.05155151 -2.9375 13.6875 C-5.268125 17.090625 -7.59875 20.49375 -10 24 C-0.76 24 8.48 24 18 24 C18.33 22.68 18.66 21.36 19 20 C19 21.65 19 23.3 19 25 C14.81909587 25.02480683 10.63823128 25.04291049 6.45727539 25.05493164 C5.03636936 25.05994565 3.61546844 25.06675852 2.19458008 25.07543945 C0.14663424 25.08763388 -1.9012431 25.09325772 -3.94921875 25.09765625 C-5.17987061 25.10289307 -6.41052246 25.10812988 -7.6784668 25.11352539 C-10.59219619 25.01393817 -13.17307326 24.67799322 -16 24 C-14.44833267 19.39730141 -11.96462859 15.87447866 -9.125 12 C-8.69058594 11.39671875 -8.25617187 10.7934375 -7.80859375 10.171875 C-6.55288029 8.43725581 -5.27830256 6.71800599 -4 5 C-3.29617187 4.030625 -2.59234375 3.06125 -1.8671875 2.0625 C-1.25101563 1.381875 -0.63484375 0.70125 0 0 Z " fill="#D5B56F" transform="translate(62,6)"/>
<path d="M0 0 C11.22 0 22.44 0 34 0 C34.495 1.485 34.495 1.485 35 3 C34.09130859 4.69824219 34.09130859 4.69824219 32.6484375 6.546875 C32.12636719 7.2275 31.60429688 7.908125 31.06640625 8.609375 C30.50824219 9.31578125 29.95007813 10.0221875 29.375 10.75 C28.29874392 12.14005604 27.22321665 13.53067669 26.1484375 14.921875 C25.62217773 15.59798828 25.09591797 16.27410156 24.55371094 16.97070312 C22.29044372 19.92674918 20.14341555 22.95619056 18 26 C16.68 25.34 15.36 24.68 14 24 C14.68449219 23.35675781 15.36898437 22.71351562 16.07421875 22.05078125 C19.7146467 18.4103533 22.72406107 14.29454609 25.8125 10.1875 C28.8753125 6.1346875 28.8753125 6.1346875 32 2 C21.44 1.67 10.88 1.34 0 1 C0 0.67 0 0.34 0 0 Z " fill="#9C9C94" transform="translate(25,33)"/>
<path d="M0 0 C0.99 0.33 1.98 0.66 3 1 C-1.93880766 7.48540714 -6.90439306 13.94920548 -12 20.3125 C-12.721875 21.21613281 -13.44375 22.11976562 -14.1875 23.05078125 C-14.785625 23.69402344 -15.38375 24.33726563 -16 25 C-16.66 25 -17.32 25 -18 25 C-16.38376153 21.39980743 -14.19462028 18.4490267 -11.8125 15.3125 C-10.61753906 13.73662109 -10.61753906 13.73662109 -9.3984375 12.12890625 C-6.2866226 8.0693562 -3.15927128 4.02273771 0 0 Z " fill="#F5F2EB" transform="translate(61,34)"/>
<path d="M0 0 C0.66 0 1.32 0 2 0 C-0.03504428 5.50648304 -3.14543827 9.98774067 -6.4375 14.8125 C-7.02337891 15.69615234 -7.60925781 16.57980469 -8.21289062 17.49023438 C-8.78072266 18.32490234 -9.34855469 19.15957031 -9.93359375 20.01953125 C-10.44978271 20.78370361 -10.96597168 21.54787598 -11.49780273 22.33520508 C-11.99352783 22.8845874 -12.48925293 23.43396973 -13 24 C-13.99 24 -14.98 24 -16 24 C-14.44833267 19.39730141 -11.96462859 15.87447866 -9.125 12 C-8.69058594 11.39671875 -8.25617187 10.7934375 -7.80859375 10.171875 C-2.57739433 2.94559353 -2.57739433 2.94559353 0 0 Z " fill="#F6F2EA" transform="translate(62,6)"/>
<path d="M0 0 C0.66 0.66 1.32 1.32 2 2 C1.5153125 2.65484375 1.030625 3.3096875 0.53125 3.984375 C-4.52122004 10.86350729 -9.31778693 17.86460615 -14 25 C-13.34 25.33 -12.68 25.66 -12 26 C-13.65 25.67 -15.3 25.34 -17 25 C-15.41719572 20.15848103 -12.64974437 16.51972607 -9.625 12.5 C-9.14289062 11.84902344 -8.66078125 11.19804687 -8.1640625 10.52734375 C-5.51216645 6.96025531 -2.80131324 3.45185518 0 0 Z " fill="#93938A" transform="translate(60,5)"/>
<path d="M0 0 C0.99 0 1.98 0 3 0 C1.60917658 2.99291115 -0.02282365 5.50012472 -2.0390625 8.109375 C-2.61914062 8.86347656 -3.19921875 9.61757813 -3.796875 10.39453125 C-4.40015625 11.17183594 -5.0034375 11.94914062 -5.625 12.75 C-6.23601563 13.54277344 -6.84703125 14.33554687 -7.4765625 15.15234375 C-8.98138165 17.10390608 -10.48927284 19.05300989 -12 21 C-13.32 20.67 -14.64 20.34 -16 20 C-15.34773438 19.2265625 -14.69546875 18.453125 -14.0234375 17.65625 C-13.14025369 16.60447835 -12.2574679 15.55237239 -11.375 14.5 C-10.91859131 13.95698242 -10.46218262 13.41396484 -9.99194336 12.85449219 C-6.88776533 9.13629488 -3.981733 5.33436608 -1.25390625 1.328125 C-0.84011719 0.88984375 -0.42632812 0.4515625 0 0 Z " fill="#E1B048" transform="translate(64,34)"/>
<path d="M0 0 C0.99 0.33 1.98 0.66 3 1 C0.69 4.3 -1.62 7.6 -4 11 C-5.32 10.34 -6.64 9.68 -8 9 C-6.8553125 7.88625 -6.8553125 7.88625 -5.6875 6.75 C-3.5606298 4.5736677 -1.7440044 2.47832204 0 0 Z " fill="#959387" transform="translate(47,48)"/>
<path d="M0 0 C0.66 0.66 1.32 1.32 2 2 C0.35 4.31 -1.3 6.62 -3 9 C-3.99 8.67 -4.98 8.34 -6 8 C-4.02 5.36 -2.04 2.72 0 0 Z " fill="#8E8D83" transform="translate(60,5)"/>
<path d="M0 0 C0.66 0 1.32 0 2 0 C1.25 2.4375 1.25 2.4375 0 5 C-2.125 5.8125 -2.125 5.8125 -4 6 C-1.125 1.125 -1.125 1.125 0 0 Z " fill="#8A8B81" transform="translate(52,42)"/>
</svg>
